:SAMPLES-PER-SECOND 30
:FULLY-SPECIFIED
:DEGREES
509
root  13.0946 40.7455 6.80657 8.66718 75.108 7.00305
RightUpLeg  -8.27649 -8.74166 -9.02672
RightLeg  3.61745 3.51011 1.97202
RightFoot  5.04989 -0.327387 2.51292
RightToes  0.000481921 0.542163 -0.142578
Spine  12.2749 -3.5555 -4.21691
Spine1  -0.95116 -5.63888 8.72244
HEad  11.4776 25.6759 -8.89102
LeftShoulder1  3.39866 -7.20028 -25.62
LeftArm  -25.6237 14.6361 -31.3321
LeftForeArm  -173.709 -42.4021 -172.188
LeftHand  -0.25398 0.0180481 5.50724
RightShoulder  2.83901 5.48546 25.4792
RightArm  8.89534 -5.97327 48.5143
RightForeArm  174.232 57.7069 164.588
RightHand  -0.0500512 -2.54247 -1.24423
LeftUpLeg  -0.979203 6.44499 2.60771
LeftLeg  1.14145 31.1544 -5.31396
LeftFoot  -0.354185 0.103302 -1.0506
LeftToes  1.06247e-005 4.65869e-005 -8.65511e-006
510
root  13.2802 40.7053 6.73873 7.3338 73.019 5.93097
RightUpLeg  -8.49728 -8.48119 -8.82766
RightLeg  4.15649 5.33814 1.85178
RightFoot  4.73008 -0.334701 2.59933
RightToes  0.000481921 0.542163 -0.142578
Spine  11.5637 -2.67436 -1.80571
Spine1  -0.0754614 -3.8983 5.02762
HEad  12.1966 23.7842 -7.00549
LeftShoulder1  4.01397 -6.66372 -33.3662
LeftArm  -23.8407 22.8593 -36.0752
LeftForeArm  -175.433 -34.1364 -173.827
LeftHand  -0.25398 0.0180481 5.50724
RightShoulder  2.84893 5.2256 26.5797
RightArm  8.79116 -3.50112 47.8035
RightForeArm  178.05 57.9062 164.796
RightHand  -0.0298852 -3.21585 -0.405363
LeftUpLeg  -0.913888 7.11873 2.84145
LeftLeg  2.97116 32.5911 -4.85715
LeftFoot  -1.35022 0.0861409 -0.893663
LeftToes  1.06247e-005 4.65869e-005 -8.65511e-006
511
root  13.3591 40.677 6.80546 7.82306 73.5159 6.99438
RightUpLeg  -8.22576 -8.4559 -9.02294
RightLeg  5.36361 4.94677 1.56419
RightFoot  3.74691 -0.319511 2.60449
RightToes  0.000481921 0.542163 -0.142578
Spine  11.1721 -1.99972 -0.255141
Spine1  -0.0615465 -2.55051 2.26353
HEad  14.6814 20.4563 -4.5319
LeftShoulder1  4.37785 -6.79557 -36.3656
LeftArm  -20.673 24.3083 -40.7158
LeftForeArm  179.523 -37.4094 -172.601
LeftHand  -0.25398 0.0180481 5.50724
RightShoulder  2.69649 4.4641 27.828
RightArm  7.35778 -5.02142 49.15
RightForeArm  177.644 57.6282 164.919
RightHand  -0.0697473 -2.87998 -2.11699
LeftUpLeg  -0.602882 7.26431 2.82141
LeftLeg  3.87106 31.9267 -4.58708
LeftFoot  -1.63993 0.0824641 -0.857885
LeftToes  1.06247e-005 4.65869e-005 -8.65511e-006
512
root  13.3698 40.6737 7.01501 13.3347 77.7829 12.931
RightUpLeg  -7.13171 -9.00319 -9.5189
RightLeg  6.50391 1.37255 1.44355
RightFoot  2.38618 -0.295962 2.59326
RightToes  0.000481921 0.542163 -0.142578
Spine  10.513 -2.34806 -1.55476
Spine1  -0.0171476 -3.31002 3.9865
HEad  16.8392 17.628 -3.89431
LeftShoulder1  4.5744 -7.29471 -36.2306
LeftArm  -18.2169 22.759 -41.1624
LeftForeArm  175.047 -45.4289 -169.981
LeftHand  -0.25398 0.0180481 5.50724
RightShoulder  2.46412 3.53042 29.023
RightArm  5.51975 -9.59169 51.4475
RightForeArm  177.879 56.4384 165.576
RightHand  -0.129532 -1.27658 -3.502
LeftUpLeg  -0.93273 7.0341 2.90185
LeftLeg  4.54612 27.8434 -4.20797
LeftFoot  -1.3804 0.0802741 -0.841266
LeftToes  1.06247e-005 4.65869e-005 -8.65511e-006
513
root  13.3685 40.6671 7.32359 -2.15778 85.0175 -2.25433
RightUpLeg  -5.43381 -10.1625 -10.0651
RightLeg  7.6281 -4.12281 1.56913
RightFoot  0.800029 -0.278787 2.6727
RightToes  0.000481921 0.542163 -0.142578
Spine  10.4438 -3.74773 -6.37271
Spine1  -0.0963929 -6.38508 11.0167
HEad  17.3937 16.7075 -5.43607
LeftShoulder1  4.68708 -7.52506 -36.3643
LeftArm  -15.3465 20.4138 -38.2542
LeftForeArm  175.671 -50.7191 -168.106
LeftHand  -0.25398 0.0180481 5.50724
RightShoulder  2.37994 3.20234 29.4935
RightArm  4.16563 -14.8536 52.256
RightForeArm  -178.372 54.2259 166.97
RightHand  -0.109799 0.0181459 -2.34626
LeftUpLeg  -1.97027 6.92802 3.09961
LeftLeg  5.56007 21.1214 -3.51353
LeftFoot  -0.920173 0.0760012 -0.782747
LeftToes  1.06247e-005 4.65869e-005 -8.65511e-006
514
root  13.3629 40.6281 7.66808 113.376 86.3763 113.564
RightUpLeg  -3.78588 -11.886 -10.4933
RightLeg  9.03933 -9.56095 1.65011
RightFoot  -0.842562 -0.266185 2.83346
RightToes  0.000481921 0.542163 -0.142578
Spine  11.7413 -5.23049 -12.3348
Spine1  -0.991114 -9.86774 19.4887
HEad  17.0525 16.0818 -6.84261
LeftShoulder1  4.81296 -7.66671 -36.9369
LeftArm  -12.0472 17.9134 -35.5267
LeftForeArm  178.38 -51.7545 -167.839
LeftHand  -0.25398 0.0180481 5.50724
RightShoulder  2.38946 3.38493 28.6782
RightArm  2.57635 -20.1458 50.9879
RightForeArm  -175.909 52.2731 168.029
RightHand  -0.0702213 0.548105 -1.41927
LeftUpLeg  -3.43851 7.07228 3.08921
LeftLeg  6.89814 13.6634 -2.62347
LeftFoot  -0.501146 0.0750355 -0.758778
LeftToes  1.06247e-005 4.65869e-005 -8.65511e-006
515
root  13.3425 40.5578 8.01541 173.558 80.2655 173.691
RightUpLeg  -2.80568 -14.0677 -10.7057
RightLeg  10.7665 -14.3969 1.34698
RightFoot  -2.34978 -0.250065 2.97446
RightToes  0.000481921 0.542163 -0.142578
Spine  13.5923 -6.07025 -16.6993
Spine1  -2.80364 -11.979 25.517
HEad  16.9593 13.5088 -6.40593
LeftShoulder1  4.8738 -8.13112 -35.7927
LeftArm  -8.56429 14.7517 -35.3147
LeftForeArm  177.949 -52.1951 -167.613
LeftHand  -0.25398 0.0180481 5.50724
RightShoulder  2.22033 3.1821 27.1422
RightArm  -0.532873 -26.2485 49.569
RightForeArm  -178.372 51.1024 168.336
RightHand  -0.166853 0.621445 -3.29144
LeftUpLeg  -5.4614 6.82366 2.75622
LeftLeg  8.30265 6.80097 -1.89542
LeftFoot  -0.0953373 0.0844775 -0.852017
LeftToes  1.06247e-005 4.65869e-005 -8.65511e-006
516
root  13.3211 40.4823 8.34855 175.431 73.3495 175.126
RightUpLeg  -2.39192 -16.1435 -10.662
RightLeg  12.4407 -19.0099 0.704516
RightFoot  -3.54699 -0.23348 3.07093
RightToes  0.000481921 0.542163 -0.142578
Spine  15.1078 -6.31315 -18.5728
Spine1  -4.93687 -12.5254 28.287
HEad  16.9443 8.93172 -4.9389
LeftShoulder1  4.80661 -8.71441 -33.2783
LeftArm  -4.83306 10.5062 -36.6361
LeftForeArm  176.69 -53.6756 -166.859
LeftHand  -0.25398 0.0180481 5.50724
RightShoulder  1.96507 2.56774 26.2905
RightArm  -4.82517 -32.2248 49.347
RightForeArm  176.806 49.5036 168.627
RightHand  -0.309647 0.298644 -6.38202
LeftUpLeg  -7.77017 5.83497 2.29129
LeftLeg  9.38503 1.03177 -1.52895
LeftFoot  0.465807 0.103588 -1.02912
LeftToes  1.06247e-005 4.65869e-005 -8.65511e-006
